<?xml version="1.0" encoding="utf-8"?>
<svg version="1.1" xmlns="http://www.w3.org/2000/svg" fill="#fff" xmlns:xlink="http://www.w3.org/1999/xlink" x="0px" y="0px" viewBox="0 0 1000 1000" xml:space="preserve">
<g><g transform="translate(0.000000,512.000000) scale(0.100000,-0.100000)"><path d="M7959.3,5001.4c-86.2-24.9-210.7-139.8-245.1-224c-17.2-40.2-53.6-271.9-82.3-513.2c-28.7-241.3-57.5-444.3-63.2-451.9c-5.8-7.7-88.1,34.5-181.9,93.8c-796.6,496-1673.7,718.1-2644.6,674.1c-1367.3-65.1-2654.2-787.1-3441.3-1932.2C889.1,2050.4,619.1,1318.9,540.6,595c-47.9-432.8-17.2-993.9,76.6-1432.4c47.9-220.2,80.4-298.7,147.5-369.6c168.5-178.1,469.2-168.5,610.9,19.2c82.3,107.2,103.4,227.9,70.8,383c-67,302.6-84.3,417.5-105.3,664.5c-86.2,1049.4,339,2150.6,1118.4,2895.5c997.7,955.6,2420.6,1265.8,3747.7,817.7c170.4-57.5,532.4-226,695.1-325.6l114.9-68.9l-333.2-91.9c-578.3-160.8-578.3-160.8-664.5-254.7c-111.1-118.7-141.7-247-97.7-396.4c47.9-157,216.4-285.3,373.4-285.3c97.7,0,1629.7,423.2,1763.7,486.4c107.2,51.7,189.6,143.6,216.4,245.1c24.9,90,210.7,1620.1,210.7,1736.9c0,118.7-19.2,170.4-99.6,260.5C8277.2,5003.3,8120.2,5049.3,7959.3,5001.4z"/><path d="M8752.1,1531.4c-97.7-51.7-197.3-185.8-214.5-289.2c-7.7-44,9.6-172.4,45.9-342.8c137.9-672.2,105.3-1292.6-99.6-1916.9c-212.6-651.1-597.5-1219.9-1118.4-1654.6c-1126-944.1-2690.6-1129.9-4002.4-478.8c-105.3,51.7-233.6,120.6-285.3,155.1l-91.9,59.4l82.3,23c46,13.4,249,69,448.1,124.5c356.2,97.7,365.8,101.5,451.9,187.7c187.7,183.8,162.8,469.2-51.7,620.4c-151.3,107.2-185.8,101.5-1099.2-155.1c-448.1-124.5-846.4-243.2-884.7-260.4c-93.8-44-181.9-145.5-204.9-235.5c-26.8-99.6-212.6-1625.8-212.6-1748.4c0-340.9,407.9-526.6,664.5-300.6c111.1,97.7,132.1,172.3,189.6,654.9c28.7,243.2,57.5,446.2,63.2,453.9c7.7,7.6,51.7-11.5,97.7-44c149.4-99.6,444.3-260.4,632-342.8c1127.9-499.8,2386.1-524.7,3527.4-65.1c1306,522.8,2319.1,1685.2,2656.1,3048.7c101.5,413.6,136,683.7,136,1105c0,400.2-55.5,836.9-143.6,1135.6C9259.6,1525.7,8983.9,1652.1,8752.1,1531.4z"/></g></g>
</svg>